<svg id="svg" version="1.1" xmlns="http://www.w3.org/2000/svg" xmlns:xlink="http://www.w3.org/1999/xlink" width="400" height="108.63309352517985" viewBox="0, 0, 400,108.63309352517985"><g id="svgg"><path id="path0" d="M59.000 13.167 C 55.867 13.488,49.525 14.924,48.750 15.488 C 48.658 15.555,48.208 15.746,47.750 15.913 C 45.665 16.672,41.721 18.889,39.756 20.406 C 37.062 22.488,35.228 24.210,33.356 26.417 C 32.078 27.923,31.852 28.221,30.565 30.102 C 28.831 32.634,26.738 37.144,26.933 37.924 C 27.028 38.302,26.990 38.333,26.435 38.333 L 25.833 38.333 25.833 39.700 C 25.833 40.991,25.861 41.096,26.328 41.578 C 26.899 42.167,27.060 42.873,26.644 42.960 C 26.465 42.997,26.312 42.845,26.197 42.517 C 25.704 41.102,21.107 40.779,20.591 42.123 C 20.269 42.964,22.514 44.411,23.935 44.279 C 25.130 44.167,25.567 44.421,25.198 45.011 C 25.081 45.199,25.000 45.978,25.000 46.914 C 25.000 48.162,24.950 48.500,24.767 48.500 C 23.648 48.500,25.025 59.824,26.581 63.417 C 26.700 63.692,26.998 64.442,27.244 65.083 C 34.362 83.681,56.980 93.317,75.936 85.829 C 85.165 82.183,93.807 73.847,96.754 65.750 C 96.921 65.292,97.111 64.842,97.177 64.750 C 97.242 64.658,97.499 63.946,97.747 63.167 C 97.995 62.387,98.295 61.487,98.414 61.167 C 98.532 60.846,98.788 59.758,98.982 58.750 C 99.175 57.742,99.417 56.542,99.518 56.083 C 99.857 54.553,99.928 48.333,99.606 48.333 C 99.313 48.333,99.240 47.805,99.321 46.293 C 99.360 45.577,99.323 45.488,98.928 45.337 C 97.786 44.903,98.291 44.164,99.646 44.287 C 100.850 44.396,101.550 44.095,102.510 43.053 L 103.201 42.304 102.737 41.820 L 102.274 41.336 100.292 41.391 C 98.115 41.450,97.797 41.577,97.469 42.517 C 97.355 42.845,97.201 42.997,97.022 42.960 C 96.682 42.889,96.732 42.221,97.109 41.805 C 97.322 41.570,97.370 41.170,97.345 39.838 C 97.324 38.693,97.373 38.167,97.502 38.167 C 97.703 38.167,97.621 37.774,97.242 36.917 C 97.120 36.642,96.834 35.967,96.606 35.417 C 95.796 33.464,94.172 30.710,92.231 28.000 C 90.700 25.862,87.221 22.382,84.833 20.601 C 82.331 18.734,78.366 16.525,76.250 15.819 C 75.883 15.697,75.508 15.544,75.417 15.480 C 73.455 14.102,63.531 12.703,59.000 13.167 M68.583 34.511 C 77.769 35.275,80.257 36.232,83.840 40.383 C 84.615 41.282,85.763 42.506,86.390 43.103 C 87.338 44.006,87.514 44.256,87.431 44.585 C 87.249 45.311,87.668 45.201,88.690 44.255 C 89.247 43.739,89.888 43.196,90.115 43.047 C 90.467 42.817,90.488 42.757,90.263 42.631 C 89.878 42.415,89.926 41.551,90.335 41.332 C 90.827 41.069,94.456 41.304,95.033 41.636 C 96.019 42.204,96.486 43.667,95.682 43.667 C 95.595 43.667,95.222 44.212,94.854 44.879 C 94.486 45.546,94.000 46.265,93.774 46.478 L 93.363 46.864 92.515 46.474 C 92.048 46.260,91.667 46.037,91.667 45.977 C 91.667 45.721,92.230 45.689,92.769 45.914 C 93.218 46.101,93.423 46.114,93.657 45.967 C 93.932 45.795,95.075 44.003,94.963 43.919 C 94.938 43.899,94.264 43.757,93.466 43.601 C 91.518 43.222,90.841 43.558,87.951 46.330 C 86.709 47.522,85.453 48.415,83.917 49.199 C 83.367 49.480,82.590 49.944,82.190 50.230 C 81.643 50.621,81.283 50.750,80.739 50.750 C 80.128 50.750,80.001 50.808,79.922 51.123 C 79.758 51.775,77.779 53.113,76.329 53.551 C 76.053 53.634,75.846 58.003,76.118 57.997 C 76.246 57.995,76.466 57.869,78.583 56.590 C 81.267 54.969,84.333 52.862,84.333 52.639 C 84.333 52.562,84.419 52.500,84.525 52.500 C 85.182 52.500,88.777 49.290,90.556 47.115 C 91.215 46.310,91.658 46.059,91.326 46.680 C 91.118 47.069,90.973 47.253,89.645 48.814 C 88.555 50.095,87.608 50.921,85.176 52.712 C 84.208 53.425,83.285 54.118,83.123 54.254 C 82.962 54.389,82.796 54.500,82.756 54.500 C 82.716 54.500,82.174 54.856,81.551 55.292 C 80.117 56.295,78.762 57.136,77.132 58.035 C 76.271 58.510,75.830 58.855,75.798 59.080 C 75.662 60.034,71.583 60.115,71.583 59.165 C 71.583 58.753,71.596 58.750,73.272 58.703 L 74.961 58.655 75.057 56.536 C 75.110 55.370,75.156 54.229,75.160 54.000 L 75.166 53.583 73.395 53.583 L 71.624 53.583 71.736 55.417 C 71.884 57.831,71.873 58.031,71.591 58.314 C 71.006 58.899,70.833 58.294,70.833 55.654 L 70.833 53.182 71.405 52.911 C 72.126 52.569,75.538 52.472,75.851 52.784 C 76.008 52.941,76.147 52.919,76.484 52.681 C 76.722 52.514,77.217 52.223,77.583 52.035 C 78.326 51.655,79.177 50.994,79.853 50.273 C 80.298 49.798,80.696 49.564,83.618 48.063 C 84.461 47.629,85.361 47.100,85.618 46.887 L 86.083 46.500 82.167 46.588 C 80.012 46.636,77.950 46.680,77.583 46.687 C 77.217 46.694,75.004 46.614,72.667 46.510 C 63.732 46.112,61.704 46.087,55.280 46.291 C 51.688 46.405,48.112 46.577,47.333 46.672 C 46.359 46.791,45.637 46.791,45.023 46.673 C 44.531 46.579,42.716 46.504,40.989 46.508 C 37.429 46.516,37.302 46.581,39.053 47.515 C 39.620 47.818,40.533 48.307,41.083 48.603 C 41.633 48.899,42.430 49.303,42.854 49.501 C 43.281 49.700,43.708 50.041,43.809 50.264 C 43.910 50.485,44.051 50.668,44.121 50.669 C 44.192 50.671,44.512 50.904,44.833 51.187 C 45.154 51.470,45.717 51.853,46.083 52.039 C 46.450 52.225,46.945 52.514,47.182 52.681 C 47.520 52.919,47.659 52.941,47.816 52.784 C 48.449 52.151,52.589 52.725,52.778 53.472 C 52.943 54.123,52.739 58.161,52.531 58.369 C 52.268 58.632,51.652 58.071,51.788 57.693 C 51.860 57.492,51.773 57.520,51.468 57.797 C 50.997 58.226,50.322 58.110,50.032 57.550 C 49.693 56.894,49.686 55.648,50.018 55.315 C 50.192 55.142,50.333 54.934,50.333 54.853 C 50.333 54.638,50.926 54.518,51.186 54.679 C 51.330 54.768,51.432 55.262,51.473 56.075 C 51.508 56.767,51.597 57.333,51.671 57.333 C 51.834 57.333,52.050 55.159,51.972 54.287 L 51.917 53.658 50.208 53.616 L 48.500 53.573 48.501 54.495 C 48.501 55.002,48.550 56.145,48.609 57.036 L 48.716 58.656 50.400 58.703 C 52.063 58.749,52.083 58.755,52.083 59.159 C 52.083 59.691,51.240 59.895,49.532 59.776 C 48.254 59.687,47.833 59.492,47.833 58.991 C 47.833 58.823,47.667 58.638,47.458 58.575 C 47.252 58.512,46.971 58.368,46.833 58.255 C 46.696 58.141,46.171 57.831,45.667 57.566 C 45.163 57.301,44.649 56.988,44.526 56.871 C 44.403 56.754,44.083 56.546,43.815 56.407 C 43.315 56.149,39.716 53.646,37.500 52.016 C 35.549 50.581,31.914 46.697,32.228 46.383 C 32.365 46.246,32.829 46.558,32.921 46.847 C 33.153 47.578,37.315 51.479,38.760 52.319 C 39.010 52.464,39.379 52.733,39.580 52.917 C 39.945 53.249,42.998 55.365,43.635 55.726 C 43.820 55.831,44.671 56.344,45.527 56.865 C 47.856 58.285,47.645 58.386,47.655 55.842 C 47.663 53.902,47.631 53.646,47.374 53.570 C 45.818 53.117,43.303 51.287,43.592 50.820 C 43.656 50.715,43.531 50.694,43.257 50.763 C 42.810 50.875,41.333 50.425,41.333 50.176 C 41.333 50.105,40.642 49.680,39.796 49.232 C 38.070 48.316,36.480 47.200,35.871 46.476 C 35.262 45.752,33.186 44.100,32.350 43.675 L 31.617 43.301 30.184 43.595 C 28.630 43.913,28.511 43.958,28.755 44.135 C 28.844 44.200,29.110 44.623,29.346 45.075 C 29.853 46.045,30.264 46.374,30.502 46.000 C 30.590 45.862,30.663 45.804,30.664 45.871 C 30.666 45.937,30.863 45.917,31.104 45.826 C 32.018 45.478,32.115 46.008,31.217 46.443 C 30.043 47.011,29.995 46.980,28.814 44.875 C 28.442 44.210,28.067 43.667,27.981 43.667 C 27.175 43.667,27.561 42.292,28.533 41.706 C 30.337 40.617,34.851 41.299,33.500 42.455 C 33.120 42.781,33.070 42.999,33.375 43.002 C 33.490 43.003,34.126 43.496,34.789 44.097 C 35.992 45.187,36.423 45.332,36.235 44.585 C 36.153 44.256,36.329 44.006,37.276 43.103 C 37.904 42.506,39.051 41.282,39.827 40.383 C 41.183 38.811,42.815 37.427,44.315 36.575 C 47.501 34.766,59.434 33.751,68.583 34.511 M65.833 35.732 C 65.833 36.537,68.922 40.667,69.525 40.667 C 69.590 40.667,69.742 40.764,69.863 40.884 C 69.984 41.003,70.908 41.541,71.917 42.079 C 74.900 43.672,76.000 44.630,76.000 45.636 L 76.000 46.117 81.356 46.091 L 86.711 46.065 87.019 45.684 C 87.378 45.242,86.953 44.503,85.934 43.796 C 85.649 43.598,84.479 42.491,83.333 41.334 C 81.445 39.429,79.303 37.667,78.874 37.667 C 78.783 37.667,78.624 37.566,78.522 37.444 C 77.983 36.794,73.780 36.145,67.375 35.721 C 66.527 35.665,65.833 35.670,65.833 35.732 M70.343 38.185 C 72.191 40.164,72.200 40.176,71.970 40.453 C 71.231 41.343,67.833 38.600,67.833 37.113 C 67.833 35.972,68.570 36.287,70.343 38.185 M168.683 37.708 C 168.571 38.190,168.296 39.558,168.071 40.750 C 166.924 46.829,166.422 49.516,165.923 52.250 C 165.179 56.325,165.192 56.309,164.634 53.830 C 164.377 52.686,163.899 50.587,163.571 49.167 C 163.243 47.746,162.763 45.621,162.503 44.446 C 162.066 42.472,161.916 41.998,161.783 42.181 C 161.755 42.219,161.370 43.375,160.927 44.750 C 160.485 46.125,159.915 47.858,159.661 48.601 C 159.213 49.913,159.206 49.981,159.443 50.934 C 159.577 51.475,159.944 52.985,160.260 54.292 C 160.575 55.598,161.093 57.735,161.411 59.042 C 161.728 60.348,162.148 62.073,162.342 62.875 L 162.696 64.333 165.570 64.333 L 168.444 64.333 168.628 63.458 C 168.729 62.977,169.044 61.571,169.327 60.333 C 169.609 59.096,170.105 56.883,170.427 55.417 C 171.318 51.367,172.093 47.867,172.751 44.917 C 173.078 43.450,173.568 41.200,173.839 39.917 C 174.111 38.633,174.372 37.415,174.420 37.208 L 174.506 36.833 171.696 36.833 L 168.887 36.833 168.683 37.708 M234.595 37.691 C 228.570 39.370,225.496 45.100,226.172 53.394 C 226.335 55.394,226.426 55.997,226.657 56.583 C 226.729 56.767,226.919 57.329,227.080 57.833 C 229.671 65.946,241.565 68.108,246.512 61.365 C 246.735 61.062,247.015 60.706,247.135 60.575 C 250.153 57.283,250.056 46.469,246.968 41.936 C 245.369 39.588,243.794 38.571,240.072 37.483 C 239.151 37.214,235.859 37.339,234.595 37.691 M290.167 37.491 C 289.938 37.564,289.300 37.752,288.750 37.909 C 285.710 38.780,283.051 41.429,281.884 44.750 C 280.075 49.897,280.810 58.020,283.336 60.805 C 283.475 60.958,283.763 61.308,283.976 61.583 C 286.394 64.704,291.510 66.132,295.875 64.905 C 297.318 64.499,297.978 64.243,298.167 64.016 C 298.212 63.961,298.475 63.806,298.750 63.671 C 304.829 60.685,306.155 46.721,300.915 40.882 C 298.478 38.167,293.249 36.518,290.167 37.491 M154.249 38.958 C 154.091 39.760,153.933 40.604,153.897 40.833 C 153.861 41.063,153.616 42.375,153.353 43.750 C 152.936 45.930,152.399 48.889,151.855 52.000 C 151.119 56.215,150.980 56.693,150.777 55.708 C 150.724 55.456,150.602 54.875,150.504 54.417 C 150.406 53.958,150.136 52.533,149.903 51.250 C 149.670 49.967,149.217 47.529,148.897 45.833 C 148.576 44.137,148.111 41.625,147.862 40.250 L 147.409 37.750 144.538 37.704 C 142.959 37.679,141.667 37.686,141.667 37.720 C 141.667 37.788,142.433 41.288,143.170 44.583 C 143.436 45.775,143.919 47.950,144.242 49.417 C 144.565 50.883,145.096 53.283,145.423 54.750 C 145.750 56.217,146.269 58.579,146.578 60.000 C 146.887 61.421,147.178 62.696,147.226 62.833 C 147.274 62.971,147.398 63.515,147.502 64.042 L 147.690 65.000 151.009 65.000 C 154.312 65.000,154.327 64.998,154.416 64.625 C 154.592 63.888,155.184 61.207,155.751 58.583 C 156.068 57.117,156.511 55.092,156.734 54.083 C 156.958 53.075,157.180 52.025,157.226 51.750 C 157.273 51.475,157.584 50.012,157.917 48.500 C 158.250 46.987,158.775 44.587,159.083 43.167 C 159.391 41.746,159.797 39.946,159.984 39.167 C 160.171 38.387,160.327 37.694,160.329 37.625 C 160.331 37.556,159.029 37.500,157.435 37.500 L 154.536 37.500 154.249 38.958 M117.500 51.333 L 117.500 65.000 120.333 65.000 L 123.167 65.000 123.167 51.333 L 123.167 37.667 120.333 37.667 L 117.500 37.667 117.500 51.333 M125.833 40.000 L 125.833 42.333 131.917 42.333 L 138.000 42.333 138.000 40.000 L 138.000 37.667 131.917 37.667 L 125.833 37.667 125.833 40.000 M191.000 51.333 L 191.000 65.000 193.833 65.000 L 196.667 65.000 196.658 60.125 C 196.654 57.444,196.551 53.000,196.430 50.250 C 196.310 47.500,196.230 45.227,196.254 45.199 C 196.277 45.171,196.452 45.621,196.643 46.199 C 197.111 47.620,198.136 50.505,198.319 50.917 C 198.400 51.100,198.545 51.475,198.641 51.750 C 199.727 54.850,200.372 56.641,200.502 56.917 C 200.649 57.228,201.871 60.649,202.437 62.333 C 202.576 62.746,202.791 63.308,202.915 63.583 C 203.039 63.858,203.192 64.290,203.255 64.542 L 203.369 65.000 205.408 65.000 L 207.447 65.000 207.887 63.708 C 208.658 61.447,209.499 59.094,209.660 58.750 C 209.746 58.567,209.929 58.079,210.066 57.667 C 210.591 56.087,211.856 52.561,212.070 52.083 C 212.193 51.808,212.387 51.283,212.500 50.917 C 212.613 50.550,212.802 50.025,212.920 49.750 C 213.037 49.475,213.335 48.650,213.581 47.917 C 213.826 47.183,214.134 46.347,214.264 46.058 C 214.394 45.769,214.500 45.438,214.500 45.322 C 214.500 45.206,214.534 45.145,214.575 45.186 C 214.616 45.227,214.534 47.696,214.392 50.672 C 214.251 53.648,214.097 58.090,214.051 60.542 L 213.968 65.000 216.901 65.000 L 219.833 65.000 219.833 51.333 L 219.833 37.667 216.100 37.667 L 212.366 37.667 212.167 38.208 C 211.558 39.867,210.442 43.061,210.143 44.000 C 209.954 44.596,209.744 45.158,209.678 45.250 C 209.611 45.342,209.348 46.092,209.092 46.917 C 208.836 47.742,208.571 48.492,208.503 48.583 C 208.434 48.675,208.169 49.425,207.914 50.250 C 207.658 51.075,207.395 51.825,207.329 51.917 C 207.263 52.008,207.010 52.721,206.765 53.500 C 206.521 54.279,206.249 55.067,206.160 55.250 C 206.071 55.433,205.855 55.996,205.678 56.500 C 205.502 57.004,205.352 57.263,205.346 57.075 C 205.339 56.887,205.268 56.662,205.187 56.575 C 205.107 56.488,204.839 55.779,204.592 55.000 C 204.345 54.221,204.074 53.433,203.990 53.250 C 203.861 52.969,201.520 46.349,200.012 42.000 C 199.774 41.313,199.534 40.675,199.478 40.583 C 199.423 40.492,199.174 39.798,198.925 39.042 L 198.473 37.667 194.736 37.667 L 191.000 37.667 191.000 51.333 M254.000 40.000 L 254.000 42.333 258.167 42.333 L 262.333 42.333 262.333 53.667 L 262.333 65.000 265.167 65.000 L 268.000 65.000 268.000 53.667 L 268.000 42.333 272.167 42.333 L 276.333 42.333 276.333 40.000 L 276.333 37.667 265.167 37.667 L 254.000 37.667 254.000 40.000 M310.500 51.318 L 310.500 65.000 313.333 65.000 L 316.167 65.000 316.167 60.000 L 316.167 55.000 318.321 55.000 L 320.476 55.000 320.970 55.875 C 321.241 56.356,322.331 58.452,323.391 60.532 C 324.452 62.613,325.415 64.469,325.533 64.657 C 325.776 65.046,331.833 65.209,331.833 64.826 C 331.833 64.731,331.356 63.775,330.772 62.701 C 329.394 60.166,328.094 57.710,327.358 56.250 C 327.034 55.608,326.728 55.046,326.677 55.000 C 326.541 54.879,325.977 53.633,326.035 53.583 C 326.061 53.560,326.392 53.385,326.770 53.195 C 331.705 50.707,332.186 42.448,327.572 39.424 C 325.239 37.896,324.587 37.790,316.958 37.707 L 310.500 37.637 310.500 51.318 M347.270 37.923 C 341.406 39.032,338.566 43.969,341.042 48.750 C 342.027 50.652,344.590 52.296,348.950 53.824 C 353.636 55.467,354.417 56.095,354.417 58.221 L 354.417 59.538 353.713 60.163 C 352.767 61.002,351.898 61.219,349.800 61.141 C 346.831 61.031,345.443 59.948,345.078 57.458 L 344.962 56.667 342.148 56.667 L 339.333 56.667 339.333 57.259 C 339.333 64.123,348.885 68.009,356.708 64.329 C 356.960 64.210,357.167 64.050,357.167 63.973 C 357.167 63.896,357.264 63.833,357.382 63.833 C 357.990 63.833,359.651 61.578,359.961 60.333 C 361.204 55.338,358.234 51.356,351.888 49.508 C 350.571 49.125,347.804 48.043,347.669 47.859 C 347.622 47.795,347.377 47.611,347.124 47.450 C 345.829 46.626,345.499 45.062,346.348 43.780 C 348.319 40.804,354.500 42.168,354.500 45.578 L 354.500 46.167 357.417 46.167 C 359.640 46.167,360.333 46.117,360.332 45.958 C 360.298 40.311,354.264 36.599,347.270 37.923 M56.820 38.949 C 56.000 40.297,54.177 41.720,52.167 42.580 C 50.278 43.388,47.667 45.312,47.667 45.896 C 47.667 46.096,50.115 46.098,52.625 45.900 C 53.798 45.808,53.833 45.792,53.836 45.361 C 53.840 44.746,54.401 44.270,56.118 43.423 C 58.162 42.415,59.609 40.657,59.519 39.292 C 59.503 39.052,59.338 39.000,58.593 39.000 C 57.866 39.000,57.638 38.932,57.446 38.657 C 57.211 38.323,57.196 38.330,56.820 38.949 M239.383 42.335 C 240.478 42.673,242.167 43.932,242.167 44.410 C 242.167 44.526,242.304 44.801,242.472 45.019 C 243.589 46.476,243.959 53.251,243.085 56.265 C 242.154 59.480,239.644 61.135,236.646 60.513 C 233.835 59.929,232.413 57.784,231.968 53.458 C 231.154 45.551,234.337 40.777,239.383 42.335 M294.011 42.269 C 295.264 42.640,296.969 43.956,296.994 44.570 C 296.997 44.655,297.103 44.842,297.229 44.987 C 297.546 45.353,297.945 46.699,298.146 48.083 C 299.300 56.046,296.812 61.113,291.996 60.609 C 289.653 60.364,288.148 59.003,287.222 56.289 C 286.512 54.211,286.506 48.471,287.210 46.417 C 288.406 42.930,290.971 41.366,294.011 42.269 M322.939 42.727 C 325.718 43.910,325.741 48.469,322.976 49.868 C 322.107 50.307,322.003 50.319,319.125 50.326 L 316.167 50.333 316.167 46.317 L 316.167 42.302 319.208 42.368 C 321.629 42.421,322.391 42.494,322.939 42.727 M64.775 43.208 C 64.929 44.045,65.216 44.568,65.619 44.745 C 65.821 44.834,66.008 45.058,66.035 45.243 C 66.092 45.640,66.833 45.813,68.500 45.817 L 69.583 45.820 69.000 45.307 C 68.679 45.025,67.817 44.511,67.083 44.165 C 66.350 43.819,65.568 43.340,65.346 43.101 C 64.809 42.524,64.654 42.553,64.775 43.208 M32.520 49.802 C 33.321 51.906,34.556 53.999,35.660 55.125 C 37.259 56.756,37.172 57.121,35.305 56.602 C 34.448 56.364,31.749 54.999,31.500 54.678 C 31.454 54.619,30.951 54.208,30.381 53.766 C 28.714 52.470,28.527 51.930,29.470 51.132 C 29.718 50.922,30.099 50.499,30.317 50.192 C 31.179 48.977,32.141 48.807,32.520 49.802 M93.118 49.939 C 93.282 50.180,93.698 50.643,94.042 50.966 C 95.108 51.970,94.929 52.506,93.045 53.945 C 89.307 56.802,84.906 58.066,87.598 55.509 C 89.037 54.143,91.000 51.009,91.000 50.079 C 91.000 48.987,92.405 48.894,93.118 49.939 M125.833 51.500 L 125.833 53.833 131.250 53.833 L 136.667 53.833 136.667 51.500 L 136.667 49.167 131.250 49.167 L 125.833 49.167 125.833 51.500 M61.249 51.500 C 61.547 51.613,61.919 51.608,62.409 51.484 C 63.187 51.289,63.833 51.476,63.833 51.898 C 63.833 52.070,63.388 52.110,61.792 52.083 C 59.366 52.042,59.486 52.070,59.977 51.661 C 60.423 51.290,60.628 51.264,61.249 51.500 M58.959 52.458 C 58.999 52.579,58.710 52.803,58.274 52.990 C 56.101 53.921,54.769 56.183,54.931 58.667 C 54.999 59.709,55.035 59.989,55.248 61.083 C 55.732 63.577,57.066 64.793,60.176 65.579 C 60.767 65.728,61.372 65.993,61.522 66.169 C 61.787 66.481,61.799 66.481,62.077 66.174 C 62.233 66.001,62.748 65.770,63.222 65.660 C 65.956 65.026,67.472 63.936,68.083 62.167 C 68.098 62.121,68.211 61.858,68.332 61.583 C 68.711 60.725,68.766 56.677,68.410 55.925 C 67.975 55.010,66.310 53.383,65.414 52.999 C 64.618 52.657,64.486 52.293,65.125 52.198 C 66.266 52.030,69.762 55.292,69.529 56.309 C 69.501 56.433,69.531 56.658,69.597 56.809 C 69.864 57.422,69.908 57.836,69.905 59.750 C 69.899 64.221,68.286 66.391,64.207 67.415 C 63.090 67.695,62.792 67.633,62.063 66.970 C 61.763 66.697,61.695 66.686,61.613 66.899 C 61.069 68.316,57.177 67.233,55.307 65.144 C 53.506 63.134,53.111 57.747,54.580 55.240 C 55.656 53.405,58.646 51.505,58.959 52.458 M59.590 53.677 C 59.650 53.775,59.580 53.986,59.435 54.146 C 59.249 54.352,59.223 54.490,59.349 54.615 C 59.730 54.997,59.442 55.727,58.760 56.109 C 56.689 57.267,56.936 59.350,59.433 61.779 C 61.182 63.480,61.343 63.900,60.488 64.536 C 59.335 65.392,56.526 63.186,55.880 60.917 C 55.240 58.665,55.238 58.230,55.856 56.567 C 56.464 54.931,59.103 52.889,59.590 53.677 M65.343 53.793 C 68.438 55.902,69.074 59.137,67.047 62.464 C 65.979 64.217,63.205 65.375,62.773 64.249 C 62.518 63.584,62.712 63.257,64.244 61.769 C 66.705 59.378,66.977 57.298,64.973 56.172 C 64.133 55.700,63.825 55.104,64.217 54.712 C 64.469 54.460,64.470 54.410,64.230 54.145 C 63.677 53.534,64.556 53.256,65.343 53.793 M73.404 55.060 C 74.240 55.896,74.028 57.641,73.044 58.015 C 71.990 58.416,71.550 55.303,72.566 54.628 C 72.821 54.458,72.783 54.438,73.404 55.060 M42.379 58.664 C 44.102 59.041,44.761 59.122,45.086 58.999 C 46.753 58.365,47.455 59.875,47.837 64.917 C 48.018 67.308,48.097 68.188,48.246 69.500 C 48.292 69.912,48.374 70.640,48.426 71.116 C 48.597 72.665,47.771 73.227,46.943 72.125 C 46.359 71.346,45.263 69.127,44.502 67.180 C 44.308 66.683,43.995 65.938,43.806 65.524 C 43.617 65.109,43.362 64.483,43.238 64.133 C 42.796 62.879,41.780 61.398,40.554 60.220 C 39.289 59.003,39.138 58.574,39.873 58.278 C 39.989 58.231,40.087 58.187,40.093 58.180 C 40.098 58.173,41.127 58.391,42.379 58.664 M84.006 58.506 C 84.392 58.892,84.075 59.734,83.473 59.925 C 82.678 60.177,81.132 62.421,80.148 64.750 C 80.071 64.933,79.551 66.171,78.993 67.500 C 77.297 71.542,76.624 72.659,75.881 72.664 C 75.253 72.668,75.136 72.173,75.319 70.290 C 75.411 69.351,75.531 68.021,75.586 67.333 C 75.641 66.646,75.709 65.896,75.738 65.667 C 75.767 65.438,75.841 64.650,75.902 63.917 C 76.245 59.797,76.990 58.445,78.604 59.016 C 78.982 59.150,79.522 59.082,81.167 58.693 C 83.729 58.087,83.595 58.095,84.006 58.506 M50.335 60.810 L 50.881 61.287 50.793 63.352 C 50.732 64.774,50.780 65.855,50.947 66.826 C 51.126 67.865,51.148 68.479,51.030 69.160 C 50.942 69.668,50.890 70.271,50.914 70.500 C 50.938 70.729,50.967 71.160,50.979 71.458 C 50.997 71.913,51.064 72.000,51.399 72.000 C 51.870 72.000,52.135 68.785,51.938 65.467 C 51.702 61.506,51.716 61.083,52.083 61.083 C 52.771 61.083,53.311 64.055,53.450 68.602 C 53.580 72.870,53.362 73.500,51.750 73.500 C 49.851 73.500,49.173 72.095,49.665 69.179 C 49.867 67.980,49.854 67.806,49.254 63.417 C 48.876 60.659,48.906 60.396,49.602 60.346 C 49.705 60.339,50.034 60.548,50.335 60.810 M74.403 60.434 C 74.708 60.552,74.756 61.668,74.502 62.750 C 74.087 64.521,73.808 68.051,73.998 69.140 C 74.350 71.162,74.018 72.810,73.170 73.248 C 71.954 73.877,70.515 73.367,70.223 72.202 C 69.861 70.761,70.577 62.248,71.133 61.375 C 71.505 60.792,72.214 61.177,72.036 61.865 C 71.457 64.106,71.619 72.000,72.244 72.000 C 72.728 72.000,72.914 70.745,72.653 69.241 C 72.517 68.463,72.533 67.911,72.720 66.825 C 72.885 65.862,72.935 64.774,72.875 63.386 L 72.788 61.356 73.348 60.844 C 73.946 60.298,73.997 60.279,74.403 60.434 " stroke="none" fill="#0cfc04" fill-rule="evenodd"></path><path id="path1" d="M68.714 58.250 C 68.716 58.708,68.748 58.876,68.786 58.623 C 68.825 58.369,68.824 57.994,68.784 57.789 C 68.744 57.584,68.713 57.792,68.714 58.250 " stroke="none" fill="#10fc04" fill-rule="evenodd"></path><path id="path2" d="M68.714 58.250 C 68.716 58.708,68.748 58.876,68.786 58.623 C 68.825 58.369,68.824 57.994,68.784 57.789 C 68.744 57.584,68.713 57.792,68.714 58.250 " stroke="none" fill="#10fc04" fill-rule="evenodd"></path><path id="path3" d="M68.714 58.250 C 68.716 58.708,68.748 58.876,68.786 58.623 C 68.825 58.369,68.824 57.994,68.784 57.789 C 68.744 57.584,68.713 57.792,68.714 58.250 " stroke="none" fill="#10fc04" fill-rule="evenodd"></path><path id="path4" d="M68.714 58.250 C 68.716 58.708,68.748 58.876,68.786 58.623 C 68.825 58.369,68.824 57.994,68.784 57.789 C 68.744 57.584,68.713 57.792,68.714 58.250 " stroke="none" fill="#10fc04" fill-rule="evenodd"></path></g></svg>